<?xml version="1.0" encoding="UTF-8"?>
<svg width="400px" height="114px" viewBox="0 0 400 114" version="1.1" xmlns="http://www.w3.org/2000/svg" xmlns:xlink="http://www.w3.org/1999/xlink">
    <!-- Generator: Sketch 54.1 (76490) - https://sketchapp.com -->
    <title>Axure_logo_400</title>
    <desc>Created with Sketch.</desc>
    <g id="Axure_logo_400" stroke="none" stroke-width="1" fill="none" fill-rule="evenodd">
        <g id="Group-18" transform="translate(21.705426, 18.604651)">
            <path d="M304.924146,0.83654007 C291.215273,0.83654007 283.469551,3.48335285 279.022342,9.68629747 C274.376418,16.1653003 273.443208,26.3928392 273.443208,40.7972227 C273.443208,69.0722771 277.81747,80.8925883 304.924146,80.8925883 C308.180737,80.8925883 319.309658,80.8306843 325.806909,80.0376443 C328.334875,79.6185377 329.466801,77.682784 329.466801,75.9503095 L329.466801,72.8275054 C329.466801,70.39652 327.630566,68.5636607 325.193992,68.5636607 L304.924146,68.5636607 C289.629739,68.5636607 286.871196,64.958173 286.479633,44.4621047 L286.479633,37.8275054 C286.609595,16.8529363 289.3673,13.1654676 304.924146,13.1654676 C319.269412,13.1654676 322.020409,16.4380124 322.497495,34.9037979 L299.703874,34.9037979 L299.703874,47.3690815 L329.683124,47.3690815 C335.58842,47.3690815 335.58842,43.2399197 335.58842,41.8830517 L335.58842,37.9036306 C335.160804,9.15007529 328.282052,0.83654007 304.924146,0.83654007" id="Fill-9" fill="#272727"></path>
            <path d="M265.448378,1.93575372 L265.123054,1.8495901 C262.330972,1.26233897 254.700119,0.83654007 250.917812,0.83654007 C237.530909,0.83654007 230.455119,6.44135854 230.455119,17.0453405 L230.455119,76.0849925 C230.455119,78.5159779 232.15636,80.2133177 234.592934,80.2133177 L239.354566,80.2133177 C241.79114,80.2133177 243.492382,78.5159779 243.492382,76.0849925 L243.492382,18.1294964 C243.492382,15.5127991 244.154768,13.1654676 252.142806,13.1654676 L263.971006,13.1545926 C265.128924,13.2934583 266.234018,12.9730634 267.08422,12.2528024 C268.013237,11.4689644 268.523861,10.3262506 268.523861,9.03714238 L268.523861,6.05069433 C268.523861,4.0898444 267.402836,2.58992806 265.448378,1.93575372" id="Fill-7" fill="#272727"></path>
            <path d="M208.276511,1.78743517 L203.514878,1.78743517 C201.078304,1.78743517 199.377063,3.48477497 199.377063,5.91492387 L199.377063,68.5642463 L179.572563,68.5642463 C167.321778,68.5642463 162.352207,67.7854275 162.352207,48.2614188 L162.352207,5.91492387 C162.352207,3.48477497 160.650127,1.78743517 158.214391,1.78743517 L153.587752,1.78743517 C151.151178,1.78743517 149.314943,3.56173666 149.314943,5.91492387 L149.314943,48.2614188 C149.314943,76.0094529 159.379016,80.8923373 180.524219,80.8923373 C188.131595,80.8923373 198.5495,80.8923373 208.485288,79.4936423 L208.714188,79.4476326 C211.16837,78.8344487 212.413488,77.4290614 212.413488,75.2716246 L212.413488,5.91492387 C212.413488,3.48477497 210.711408,1.78743517 208.276511,1.78743517" id="Fill-4" fill="#272727"></path>
            <path d="M134.62683,3.7264514 L134.62683,3.72561486 C134.01559,2.42646813 132.705072,1.65099548 131.120377,1.65099548 L124.999596,1.65099548 C123.222054,1.65099548 121.892251,2.36707378 121.192135,3.65618203 L112.120802,16.9111594 L120.062725,27.7727957 L133.92839,7.88238247 C135.4502,6.03362891 134.923646,4.35971223 134.62683,3.7264514" id="Fill-12" fill="#74BB11"></path>
            <path d="M86.8000531,3.50627405 L86.7916684,3.49372595 C85.4090427,1.65082817 83.5686161,1.65082817 82.9632457,1.65082817 L76.9766188,1.65082817 C75.4430697,1.65082817 74.1870519,2.35519491 73.5305353,3.5823992 C72.8555724,4.83888238 72.9981112,6.34967375 73.9321591,7.74836875 L96.1111864,38.4945625 L70.6076527,74.0667559 C69.7163664,75.4043835 69.5914354,76.8917517 70.2647213,78.1473984 C70.9245918,79.3746026 72.181448,80.0772963 73.7124818,80.0772963 L79.8332628,80.0772963 C81.4070581,80.0772963 82.7905223,79.2608332 83.4830929,77.973398 L112.029409,38.6359378 L86.8000531,3.50627405 Z" id="Fill-14" fill="#009CD9"></path>
            <path d="M137.671206,74.3773632 L119.877341,49.9570855 L112.050287,60.7476159 L126.123053,79.528777 L126.488622,79.6885561 C127.09567,79.9503932 127.675886,80.0767107 128.263649,80.0767107 L134.248599,80.0767107 C135.694109,80.0767107 136.921619,79.434248 137.616705,78.3124477 C138.328561,77.1630417 138.348684,75.729212 137.671206,74.3773632" id="Fill-16" fill="#EB2084"></path>
            <path d="M47.0684705,46.8246612 L47.0684705,67.5633261 C41.0080589,68.4927221 31.7715488,68.6993475 28.6239581,68.6993475 C14.6970852,68.6993475 13.1719207,64.8939267 13.1719207,56.8129496 C13.1719207,49.2514639 16.0017338,46.8246612 24.81482,46.8246612 L47.0684705,46.8246612 Z M27.9439645,0.836707378 C23.6409716,0.836707378 17.772568,0.947967208 10.4720694,1.82717082 L10.1417149,1.89911327 C8.01453387,2.50476828 6.93710873,3.9017902 6.93710873,6.05086164 L6.93710873,9.03730969 C6.93710873,11.5829011 8.52264254,13.1656349 11.0749244,13.1656349 L27.9439645,13.1656349 C41.527906,13.1656349 47.0684705,16.8447382 47.0684705,25.8668228 L47.0684705,34.6329262 L24.81482,34.6329262 C7.42174043,34.6329262 -0.000335385261,41.2658524 -0.000335385261,56.8129496 C-0.000335385261,74.1410407 7.681664,80.8927556 27.3998019,80.8927556 C35.3861634,80.8927556 50.0886148,80.2720428 55.5226945,78.614857 C60.1048956,77.343316 60.1048956,73.8432324 60.1048956,72.6929898 L60.1048956,25.0537059 C60.1048956,8.7579053 49.5846984,0.836707378 27.9439645,0.836707378 L27.9439645,0.836707378 Z" id="Fill-1" fill="#272727"></path>
        </g>
    </g>
</svg>