<svg xmlns="http://www.w3.org/2000/svg" id="Layer_2" viewBox="0 0 335.19 138.32"><defs><style>.cls-1{fill:#000;stroke-width:0px;}</style></defs><g id="Layer_1-2"><path class="cls-1" d="M166.51,36.75c5.51-4.67,12.18-10.34,9.51-18.02-1.5-3-4.68-4.84-7.85-4.84-3.17-4.17-8.17-5.51-13.18-4.84-10.18,1.83-21.36,8.01-24.69,18.52-.83,4.17.17,8.01,3.17,10.84-.34,2.59-.67,6.17,2.16,8.01,3.17,1.67,3.86-2.09,5.51-3.5,9.35,3.67,18.35-.67,25.36-6.17ZM140.15,22.9c2.27-2.23,5.5-4.34,8.84-4.17-4.7,3.5-8.66,7.88-11.85,12.68-1.67-3,1-6.01,3.01-8.51ZM170.01,21.73c1.1,2.92-2.67,7.49-6.26,9.63-5.5,3-11.57,5.32-18.58,4.48.89-2.57,2.67-4.64,5.4-7.3,4.88-4.75,11.51-10.69,17.77-8.66.77.25,1.19.56,1.67,1.84Z"></path><path class="cls-1" d="M231.41,43.76c-1.81-.25-1.61,2.25-1.17,3.67,2.17,9.18,5.5,18.02,6.34,27.7.17,2,.84,4.67-.5,6.34-7.17-8.84-11.34-19.35-20.02-27.03-1.38-1.12-3.04.02-3.84,1.5-4,8.17-5.55,17.18-6.17,26.7-.33,5.09-1.33,11.84,4,14.51,1.5.5,3.59.27,4.17-1.16,2.34-7.68,2.02-16.6,2.34-25.2,0-.79.52-2.36,1-1.67,3.59,6.92,7.23,13.1,11.18,19.52,2,3.25,3.77,6.38,7.51,6.18,3.67-.5,6.67-3.34,8.34-6.34,4.17-12.01,1.5-26.03-4.5-36.04-2.17-3.34-4.67-7.68-8.68-8.68Z"></path><path class="cls-1" d="M165.67,63.61c11.34-3.51,24.69-2.17,36.37-5.01,1.69-.5,3.25-3.21,2.5-4.51-1.67-1.67-3.84-1.94-6.17-2.34-14.12-2.39-30.03-1.67-40.21,8.18-1.77,1.92-1.66,5.5-1.5,8.01.46,1.63,2.34,3.34,4.01,3.84,11.18,2.5,25.53-.5,35.04,7.01,1.16,1.5.1,3.09-1.34,3.84-8.85,3.67-18.21,6.28-28.55,4.11-1.39-.37-3.48-1.83-2.81-3.27,4.17-6.34,11.18-.17,16.35.66,2.58.56,8.34-.16,11.18-3.17.89-1.69-2.23-2.73-4.34-3.34-7.35-2-17.69-4.34-24.53.34-1.94,1.31-3.51,5.34-2.17,8.51,5.67,9.18,16.56,12.27,26.7,10.68,6.9-1.08,15.18-3.5,16.85-11.34.8-4.97.5-10.34-3.67-13.85-9.68-6.51-23.53-3-34.21-7.34-.33-.5-.12-.67.5-1Z"></path><path class="cls-1" d="M280.29,84.47c-7.01-.84-13.51,2.17-20.52,2,.67-3.34,1.52-6.19,3.19-9.03,5.73-.84,14.22.36,17.66-2.32,1-1.17.58-4.82-.34-5.34-4.33-1.5-10.03-.94-14.38-.69.7-2.23,1.43-4.74,2.2-6.99,3.67.33,7.34.11,10.68-.17,3.57-.29,7.84.33,10.34-2.5.73-1.44-2.08-5.3-3.67-6.51-1.58-1.21-2.27-1.71-3.17-1.84-6.63-.92-20.69,1.84-30.53,3.34-1.33.16-1,1.33-.67,2.34.84,4,5.17,3.34,8.01,4.84-1.17,2.67-1.84,5.51-3.5,8.01-1.5.5-4.01.16-4.17,2.5-.15,1.42,1,2.36.89,4.23-1.56,3.97-4.26,8.14-3.23,13.29,1.25,4.55,3.44,9.45,6.67,10.18,10.35,2,18.85-3.84,26.7-9.68,1.35-1.38-1.25-5.55-2.17-5.67Z"></path><path class="cls-1" d="M146.19,51.6c-1.85-.16-2.47,2.65-2.82,4.01-1.5,10.01-2.11,21.19-1.82,32.03.1,4.05-.5,9.51,4.47,10.51,1.99.5,5.69,0,5.97-1.34.99-12.68-.33-26.86-1.32-39.88-.11-1.33-1.82-4.67-4.48-5.34Z"></path><path class="cls-1" d="M327.68,54.6c-1.73-1.08-3.51-.56-5.17.17-10.34,6.01-22.84,19.92-25.69,26.01-.48-11.83,9.51-19.33,10.34-30.18.03-2.71-3.63.21-4.83,1.84-8.68,10.34-17.86,24.02-10.68,37.54-4.67,12.34-8.68,25.02-9.51,38.87.16,3.5,3,6.51,6,8.34,1,.5,3.4,1.84,3.67.67,2.34-13.35,5.67-26.2,10.34-38.71,4.4.57,7.11.46,13.02-2.17,10.01-4.84,19.52-15.35,20.02-26.86.15-6.17-2.17-12.01-7.51-15.52ZM308.49,87.13c2.75-6.4,10.18-17.35,18.02-24.19,1.31-1.29,2.17,5.17,1.83,7.84-1.17,7.84-10.83,14.48-15.68,15.85-1.62.46-2.36.46-4.17.5Z"></path><path class="cls-1" d="M114.24,31.31c-1.73-1.5-7.88-6.53-11.14-8.57C76.03,5.71,41.04-6.3,7.01,3.55,2.67,5.05.67,9.55,0,13.56c2.17,2.67,5.51,2.17,9.01,2.17.83-.5,2.34-.5,2.5-1.67-1.16-2.5-4.5-1.67-6.34-3,1-1,2.51-.67,3.67-1.34,33.04-4.84,65.56,5.37,91.43,24.02,13.68,9.87,26.69,24.52,22.19,42.21-5.9,17.08-29.03,19.71-47.05,19.52-4.01-.04-7.45-.67-11.01-2,.13-10.66-.08-23.9-.27-30.7,7.43-.43,21.8,1.84,31.3,6.01,1.84,1.21-3.5,4.84-5.5,6.67-1.11,1.31,2.96,2.57,5.67,2.34,4.17-.67,7.68-4,9.35-7.84,1.16-3.67-.58-6.52-2.84-9.01-10.18-8.67-24.17-8.63-37.85-8.97-.15-4.82-.26-12.02-1.17-16.33-.92-4.32-3.02-6.24-6.19-6.9-2.51,2.84-2.9,6.53-3.34,10.34-.54,4.67-1.02,9.74-1.5,14.02,0,0-7.44,1.46-11.84,2.5-4.4,1.04-21.67,6.57-20.19,15.35,1.96,7.81,14.35,17.19,22.86,22.69,2.77,1.8,5.59,3.36,8.68,4.84.35,4.05,1,8.01,3.67,11.18.85.8,3.88.48,6.17,0,2.84-1.17,2.92-4.21,3.17-6.5,2.98.52,6.53,1.35,11.7,2,20.68,2.59,46.02-3.34,57.37-24.02,9.51-19.85-7.01-39.11-19.39-49.82ZM51.22,89.47c-10.05-3-20.69-8.67-27.7-18.02-1.65-2.61,4.51-4.17,7.51-5.01,6.63-1.84,13.68-2.67,20.86-3-.61,9.26-.73,19.54-.67,26.03Z"></path></g></svg>