<svg xmlns="http://www.w3.org/2000/svg" fill="none" viewBox="0 0 225 36"><g clip-path="url(#a)"><path fill="#D2003C" fill-rule="evenodd" d="M195.907 25.248v-9.5h-5.231v10.51c0 3.556 3.681 6.442 8.223 6.442 4.543 0 8.223-2.886 8.223-6.442v-10.51h-5.192v9.5c0 1.58-1.35 2.864-3.01 2.864-1.661 0-3.01-1.283-3.01-2.864h-.003Z" clip-rule="evenodd"/><path fill="#D2003C" d="M224.189 4.456h-5.269v27.652h5.269V4.456Zm-8.904 0h-5.269v27.652h5.269V4.456Z"/><path fill="#D2003C" fill-rule="evenodd" d="M113.629 10.258h-2.864v21.85h-5.605V5.725h9.635c4.387 0 7.94 3.488 7.94 7.791 0 3.664-2.578 6.736-6.048 7.57l7.743 11.022h-6.608l-5.601-8.638v-6.31h1.301c2.069 0 3.747-1.547 3.747-3.453 0-1.907-1.571-3.453-3.643-3.453l.003.004Z" clip-rule="evenodd"/><path fill="#D2003C" d="M140.987 25.002c.035-.36.052-.73.048-1.107.08-5.701-3.694-8.832-8.503-8.832s-8.708 3.947-8.708 8.815c0 4.867 3.899 8.822 8.708 8.822 3.67 0 6.535-1.661 8.009-4.263l-4.276-1.972c-.547 1.177-1.82 2.007-3.301 2.003-2.051-.003-3.566-1.508-3.584-3.283v-.18h11.604l.003-.003Zm-11.624-3.03a3.218 3.218 0 0 1 6.435 0h-6.439.004Zm32.595 10.136-.007-27.652H156.7V17.54c-1.398-1.384-3.259-2.221-5.293-2.221-4.352 0-7.878 3.857-7.878 8.617 0 4.76 3.526 8.618 7.878 8.618 2.055 0 3.916-.875 5.317-2.287v1.84h5.234Zm-9.057-4.04c-2.134 0-3.868-1.897-3.868-4.232s1.73-4.23 3.868-4.23 3.868 1.895 3.868 4.23c0 2.335-1.73 4.231-3.868 4.231Zm31.327-10.321c1.443-1.346 2.325-3.148 2.325-5.127 0-1.792-.692-3.442-1.899-4.736-1.256-1.384-3.48-2.159-6.487-2.159h-9.005v26.383h11.631c4.456-.073 8.047-3.439 8.047-7.566 0-3.003-1.059-5.145-4.608-6.795h-.004Zm-4.41 9.78h-5.041v-17.27h3.515c1.543 0 2.795 1.412 2.795 2.958a2.794 2.794 0 0 1-2.795 2.796h-1.83v4.743h3.356c1.871 0 3.286 1.508 3.286 3.38-.066 1.933-1.252 3.269-3.286 3.393Z"/><path fill="#FC0" d="M47.268 36c9.94 0 18-8.059 18-18s-8.06-18-18-18c-9.941 0-18 8.059-18 18s8.059 18 18 18Z"/><path fill="#FC0" d="M45.984 26.351c-1.017-.574-1.218-1.705-1.75-2.397-.218-.274-.578-.578-.675-.827-.917-2.346-1.228-3.664-1.55-5.954-.166-1.173-.944-2.162-2.079-3.55-.495-.605-1.2-1.605-1.81-2.196-2.047-1.726-3.154-2.685-4.52-3.605a5.304 5.304 0 0 0-.845-.467h-.007a.026.026 0 0 1-.014-.007c-.456-.2-.868-.256-1.429-.287a4.188 4.188 0 0 0-.224-.007c-1.018 0-1.986.37-2.962 1.124-.709.464-1.522.723-2.31.972-.994.315-2.025.644-2.865 1.377-.15.108-.287.26-.422.402-.184.197-.315.422-.595.512-.243.055-.416.055-.613.072a7.415 7.415 0 0 0-.924.132c-1.034.245-1.826.882-2.66 1.557-.093.076-.19.152-.284.228-.54.429-1.47.82-1.996.837-1.47.045-2.511.391-3.594 1.197-1.118.855-2.315 1.737-3.64 2.28a2.703 2.703 0 0 1-.954.183c-.346 0-.841-.076-1.235-.442-.502-.464-.668-1.357-.367-1.955.45-.886 1.366-1.609 2.114-2.142.965-.73 1.899-1.688 1.484-3.276-.447-1.453-2.221-1.92-3.394-2.231-.332-.087-.62-.163-.789-.242-.37-.173-.63-.35-.882-.52a4.222 4.222 0 0 0-.785-.449.449.449 0 0 0-.146-.028c-.166 0-.297.08-.397.239-.423.737-.547 1.488-.37 2.221.273 1.204 1.46 2.3 2.698 2.494.124.031.266.042.405.056.128.01.259.024.38.048a14.236 14.236 0 0 0-2.235 2.155c-.906 1.066-1.155 2.827-.578 4.093.499 1.266 1.765 2.297 3.08 2.505.259.048.54.072.857.072.457 0 .917-.048 1.357-.096.107-.01.218-.025.321-.035.045 1.003.08 1.626.637 3.048.034.09.01.242-.107.346-.097.086-.907.422-1.139.47a1.58 1.58 0 0 1-.297.021h-.332c-.11 0-.253 0-.391.02-.509.073-.761.502-.941.918-.11.252-.19.474-.26.664-.173.474-.28.768-.612.948 0 0-.692-.616-.81-.7A1.056 1.056 0 0 0 4 25.982c-.436 0-.823.277-1.197.543a4.97 4.97 0 0 1-.35.239c-.314.197-.55.533-.618.882-.509.256-1.007.564-1.239 1.073-.11.218-.131.484-.152.74a3.75 3.75 0 0 1-.042.363 1.94 1.94 0 0 1-.135.235c-.141.194-.266.481-.266.658 0 .373.138.515.346.692.253.18.941.39 1.432.512a.42.42 0 0 0 .11.014c.15 0 .27-.077.385-.15.055-.034.11-.072.173-.1.405.097 1.003.222 1.584.222.301 0 .575-.035.82-.1.592-.16 1.097-.962 1.37-1.395.066-.104.132-.207.149-.221a.124.124 0 0 1 .055-.01c.09 0 .236.041.391.086.18.052.388.11.575.128.667.059 1.304-.356 1.716-.664.169-.125.352-.301.532-.47.2-.191.405-.388.582-.506a1.89 1.89 0 0 1 .736-.138c.09 0 .19.003.298.014.48.1 1.11.218 1.723.218.612 0 1.076-.104 1.48-.315l.374-.194c.405-.207.82-.418 1.214-.633.761-.412 1.066-1.09 1.315-1.633l.062-.138c.146-.315.367-.886.426-1.028.117.017.239.024.367.024.411 0 .816-.086 1.207-.17.384-.082.785-.165 1.186-.165.212 0 .405.02.599.069.72.142 1.668.305 2.633.305a6.59 6.59 0 0 0 1.487-.156c.111.107.236.2.357.29.12.09.231.173.335.274a3.71 3.71 0 0 1-.335.045c-.336.038-.685.076-.941.35a2.155 2.155 0 0 0-.872-.16 6.99 6.99 0 0 0-1.01.097c-.135.02-.267.038-.395.055-.515.062-.868.26-1.051.595-.111.218-.194.447-.014.82l1.013 1.681c.125.218.332.395.474.405.076.007.177 0 .287-.01.087-.007.177-.014.263-.014.163 0 .26.028.295.083.051.08.1.156.148.235.208.326.422.665.747.952.492.429 1.284.608 2.028.436.28-.104.56-.205.84-.305.876-.315 1.782-.64 2.66-1.013l1.457-.208c.481-.094.848-.744.969-1.014l.031-.062s.44-.872.574-1.401c.007.09.007.21.007.377 0 .823.146 1.865 1.55 1.81.782-.032 1.82-.495 2.56-.63.775-.132 1.785.197 2.536-.17.73-.297 1.149-.865 1.266-.747A4.988 4.988 0 0 0 44.78 29c1.049-.034 1.163-.875.43-1.256 1.431.166 1.854-.608 1.587-.858-.17-.159-.27-.238-.813-.543v.007Zm-12.859-.782c-.54-.73-.892-1.248-.944-1.916.688-.08 1.318-.308 2.342-.363-.267.792-1.183 1.169-1.401 2.276l.003.003Zm60.851 4.647c-.049-.097-.097-.19-.125-.26-.045-.155-.052-.318-.062-.491-.01-.19-.02-.388-.08-.574-.162-.54-.74-.876-1.207-1.066-.017-.204-.055-.425-.245-.56-.807-.575-1.229-.9-1.457-1.073-.135-.104-.183-.142-.211-.152a.749.749 0 0 0-.305-.07c-.356 0-.64.284-.916.554l-.19.187c-.007.007-.01.007-.021.007-.087 0-.267-.266-.312-.387-.08-.215-.141-.419-.204-.616a7.008 7.008 0 0 0-.398-1.07c-.304-.605-.954-.615-1.529-.625h-.162c-.263 0-.61-.038-.672-.212-.062-.172.066-.498.146-.736.055-.166.107-.322.124-.474.146-.65.156-1.516.028-2.218.145.004.29.02.443.038.131.018.266.031.408.038h.125c.865 0 1.595-.17 2.231-.515 1.283-.772 2.069-2.017 2.1-3.342-.045-.692-.208-1.263-.56-1.969-.474-.934-1.263-1.854-2.415-2.809.667-.138 1.221-.3 1.733-.623 1.045-.664 1.508-1.868 1.304-3.393-.055-.36-.194-.983-.498-1.145a.296.296 0 0 0-.142-.035c-.221 0-.436.239-.626.45-.07.08-.138.152-.197.204-.356.318-.775.401-1.214.488-.232.045-.47.093-.696.176-1.052.343-2.84 1.124-3 2.546-.155 1.405.845 2.35 1.814 3.263.321.304.63.591.892.896.56.647 1.038 1.29.913 2.017-.044.249-.397.63-.733.782-.256.09-.522.134-.792.134-.896 0-1.758-.49-2.515-.927l-.108-.062c-1.757-1.218-3.573-2.48-5.825-2.72-.858-.165-1.602-.684-2.325-1.19a25.725 25.725 0 0 0-.502-.345 7.001 7.001 0 0 0-2.46-.879c-.45-.059-.806-.353-1.183-.66a4.98 4.98 0 0 0-.622-.46 8.186 8.186 0 0 0-2.9-1.163 3.141 3.141 0 0 0-.31-.076c-.27-.056-.551-.118-.745-.322-.297-.35-.706-.8-1.2-1.152-.661-.443-1.688-.914-2.584-.914a2.02 2.02 0 0 0-.537.066c-.498.125-.885.415-1.294.723l-.155.114c-.82.64-1.91 1.52-2.768 2.132-2.56 1.823-3.522 2.622-4.791 4.01-3.266 3.566-2.273 8.904-5.096 11.997-.73.802-.934.906-1.2 1.128-.33.276-.406 1.747 1.732 1.027-.975.834-.36 1.221.28 1.235 1.129.024 2.374-.367 3.595-1.667.848 1.22 2.325.657 3.093.72.72.058 2.045.84 2.816.795 1.176-.073 1.609-1.249 1.491-1.903.19 0 .242-.045.294-.138.139.681.232 1.148.364 1.49.01.025.027.056.044.09v.008c.084.148.257.477.43.636.2.242.501.274.74.274.097 0 .194-.007.287-.01.107-.008.211-.011.311-.011a2.9 2.9 0 0 1 .256.214c.19.166.384.34.623.405 1.114.287 2.038.543 2.934.858.183.059.463.135.743.135.09 0 .18-.007.263-.024.852-.184 1.61-.913 1.796-1.74.014-.128.107-.139.266-.146.115-.003.246-.01.319-.093.463-.37.747-.879 1.024-1.367.058-.103.117-.21.18-.314a.876.876 0 0 0 .034-.817c-.09-.18-.252-.311-.488-.39-.443-.125-.937-.136-1.363-.136h-.47c-.222 0-.478 0-.727-.024l-.18-.197c-.131-.118-.297-.145-.46-.173l-.117-.02.404-.316c.163.004.322.007.481.007.941 0 1.806-.083 2.578-.245a9.395 9.395 0 0 1 2.096-.26c.094 0 .19 0 .287.007.114.007.232.014.346.024.422.028.855.06 1.287.06.571 0 1.035-.053 1.45-.163.052.207.093.411.131.612.152.754.294 1.467.875 2.086.35.446.806.702 1.25.955.228.128.46.273.684.422.298.152.537.176.879.176.477 0 1.086-.204 1.432-.204 1.443 0 2.557.782 3.764 1.726.215.142.478.215.779.215.366 0 .778-.11 1.138-.305l.028.042c.22.311.453.637.764.89.446.404 1.024.46 1.53.46.169 0 .345-.008.515-.015.242-.01.487-.02.723-.01.093.131.273.232.415.225.142-.007 1.702-.516 1.785-.543.083-.028.2-.097.2-.097.378-.194.104-.74-.096-1.142l-.007.01ZM61.67 25.62c-.377-.75-.672-1.425-1.139-2.13 1.07.252 2.29.13 2.29.13-.345.492-.74 1.194-1.151 2Z"/><path fill="#D2003C" d="M68.323 26.362c-.056-.07-.166-.08-.229-.08-.027 0-.052 0-.08.004-.193.024-.37.034-.553.034a6.83 6.83 0 0 1-.283-.007c-.077 0-.146-.007-.215-.007-.114 0-.207.007-.3.025h-.022l-.01.02c-.014.028-.37.65-.322 1.045.052.426.484.512.813.578.118.024.253.048.391.048.235 0 .391-.08.47-.235a5.88 5.88 0 0 0 .367-1.308.136.136 0 0 0-.027-.124v.007Zm23.503 1.404c-.204-.294-.56-.53-.844-.72a3.283 3.283 0 0 1-.326-.231l-.058-.042a.356.356 0 0 0-.232-.086c-.322 0-.671.387-.678.518-.01.194.266.54.626.97l.076.093c.183.217.38.335.588.349.211 0 .377-.07.554-.235.131-.121.422-.426.29-.613l.004-.003Zm1.506 2.505a1.83 1.83 0 0 1-.124-.304 4.562 4.562 0 0 1-.07-.443c-.03-.236-.058-.46-.131-.633a.645.645 0 0 0-.567-.364.501.501 0 0 0-.236.056c-.352.176-.564.367-.505.764.194.578.29.997.419 1.567.014.087.073.374.21.374.011 0 .022 0 .032-.003l1.014-.332a.171.171 0 0 0 .107-.094c.059-.135-.048-.363-.152-.585l.003-.003Z"/><path fill="#D2003C" d="M91.54 31.08a6.295 6.295 0 0 0-.513-1.802l-.013-.027h-.031c-.589.037-.952-.44-1.305-.897-.117-.152-.225-.294-.342-.418a5.514 5.514 0 0 0-.564-.547c-.208-.18-.384-.339-.453-.48-.083-.174-.173-.506-.26-.828-.062-.228-.12-.446-.176-.595-.01-.03-.024-.062-.035-.093-.107-.284-.235-.637-.602-.695-.183-.031-.384-.038-.574-.045-.53-.021-1.062-.114-1.335-.495-.253-.35-.15-.675-.007-1.02.062-.153.107-.28.142-.426.19-.64.256-1.436.11-1.993a3.375 3.375 0 0 0-.083-.266c-.076-.232-.166-.585-.11-.692.058-.107.117-.125.224-.125.094 0 .201.032.301.06.073.02.128.03.198.048.262.062.657.134 1.017.134.595 0 1.22-.128 1.76-.36 1.021-.494 2.028-1.611 1.976-2.995-.135-1.401-1-2.754-2.65-4.141-.038-.035-.083-.07-.125-.104-.214-.177-.474-.401-.48-.599-.007-.197.508-.318.83-.394.076-.017.142-.031.2-.048l.083-.021c.412-.107.834-.218 1.184-.46 1.176-.793 1.134-2.187 1-2.955-.007-.02-.011-.045-.018-.072-.02-.1-.048-.225-.142-.225a.145.145 0 0 0-.09.041c-.034.031-.069.066-.107.1-.135.129-.284.274-.457.37-.373.222-.823.316-1.255.406-.277.058-.564.117-.83.21-1.17.405-1.896.997-2.156 1.761-.135.398-.062.9.197 1.384.384.606.934 1.135 1.47 1.647.845.81 1.716 1.643 1.917 2.778.11.66-.159 1.218-.82 1.699-.346.207-.789.318-1.28.318a3.88 3.88 0 0 1-1.785-.45c-.685-.342-1.346-.785-1.986-1.214-.962-.643-1.958-1.308-3.061-1.66-.478-.219-1.01-.326-1.523-.43-.73-.148-1.484-.3-2.09-.775a12.865 12.865 0 0 1-.612-.429c-.55-.397-1.117-.81-1.76-.972-.24-.083-.474-.114-.703-.148-.353-.052-.681-.097-.986-.315l-.415-.301c-.512-.374-1.041-.761-1.57-1.028-.91-.453-1.879-.688-2.962-.923-.346-.083-.56-.343-.789-.62-.152-.186-.311-.377-.512-.512-.833-.66-1.591-1.103-2.567-1.103-.09 0-.183.003-.273.01-.512.035-1.01.422-1.342.713-.972.85-2.02 1.608-3.03 2.342-1.51 1.09-3.066 2.217-4.398 3.674-1.311 1.353-1.785 3.04-2.249 4.677-.069.242-.134.481-.207.723-.125.447-.239.907-.35 1.35-.601 2.41-1.22 4.819-3.629 6.382-.159.104-.103.305.045.36.063.024 1.073.363 2.08-.647.608-.754.947-1.45 1.674-2.228.024-.024.107-.09.176-.083.049.024.063.049.049.135-.094.312-.284.585-.47.851-.19.273-.385.554-.482.875-.231.692-.875 1.253-1.446 1.744 0 0-.09.059-.141.125-.052.065-.052.093-.052.093-.018.152.103.246.349.256 1.35 0 2.311-.958 3.238-1.889a.203.203 0 0 1 .156-.059.4.4 0 0 1 .149.024c.062.035.204.174.314.27.305.27.616.55 1.024.633h.014c.492-.069.934-.124 1.391-.124.132 0 .256.003.367.014.491.148.986.335 1.46.512.335.128.681.256 1.03.373h.015c.45-.017.77-.435 1.006-.806.11-.263.059-.519.007-.768-.031-.155-.062-.3-.052-.443.083-.041.197-.034.319-.017.107.017.262 0 .314-.007.118-.017.242-.152.208-.328-.09-.45-.315-.727-.54-1.073-.197-.294-.384-.57-.477-.882-.149-.412-.464-.754-.768-1.086-.353-.384-.685-.748-.786-1.208 0 0-.03-.097.004-.135.034-.038.128.007.128.007.162.118.325.25.48.377.513.416 1.042.848 1.686.945.598.059 1.255.135 1.895.08.17-.028.256-.177.215-.319-.256-.54-.519-1.12-.678-1.754-.135-.477-.436-1.733-.128-2.681.031-.093.093-.125.149-.125.006 0 .013 0 .024.004.104.024.173.149.187.245l.01.125c.09 1.29.176 2.508.965 3.546.211.336.512.512.803.685.2.118.432.225.578.412.166.21.193.57.08.788l-.97 1.43c-.228.325-.45.674-.529 1.03-.072.36-.041.71-.01 1.049l.007.082a.207.207 0 0 1-.073-.079c-.39-.706-.47-1.304-.27-1.764.128-.298.917-1.415 1.145-1.782.073-.118.132-.235.07-.315-.077-.1-.668-.353-.824-.353-.01 0-.02 0-.031.004-.138.038-.228.166-.308.28a3.324 3.324 0 0 1-.055.076l-1.194 2.166-.028.08c-.069.217-.13.404-.069.653.066.325.166.675.242.93l.063.212c.107.377.207.73.373.927a.5.5 0 0 0 .412.18c.09 0 .183-.014.273-.028.15-.024.312-.041.433-.01.18.045.304.18.436.318.131.142.266.287.467.346.37.125.757.225 1.131.322.498.131 1.014.266 1.505.456.277.09.574.173.861.173.319 0 .516-.09.793-.314.387-.315.515-.627.612-1.076.076-.412.214-.44.512-.457.145-.007.166 0 .308-.048.149-.049.581-.578.806-1.01.062-.118.128-.226.19-.319a.463.463 0 0 0 .094-.273c0-.215-.18-.28-.294-.284h-.077s-1.273-.01-1.622 0c-.522.028-.75.53-.934.976-.073.173-.139.332-.225.474-.138.249-.408.401-.74.394-.097 0-.312-.059-.422-.086-.689-.17-1.398-.343-1.689-1.028-.027-.117-.072-.36.1-.564.367-.425.852-.965 1.35-1.352.692-.146 1.384-.658 1.764-1.301.08-.111.121-.242.163-.367.062-.194.12-.377.297-.491.111-.056.201-.038.225.059.066.36-.069.705-.204 1.04a6.095 6.095 0 0 0-.086.226l-.021.055.059.007c.19.017.387.028.584.028.71 0 1.384-.121 2.038-.239.647-.118 1.318-.239 2.01-.239.073 0 .149 0 .225.004.308 0 .605.027.896.052.284.024.578.052.872.052.103 0 .2 0 .297-.01.886-.042 1.53-.444 1.723-1.08.183-.543.163-1.48-.059-2.789-.01-.062-.017-.103-.017-.11v-.024c0-.049 0-.1.066-.132.083-.045.17 0 .21.107.336.941.53 2.024.634 2.768.114.723.415 1.456.927 2.238.633.945 1.678 1.488 2.864 1.488.277 0 .554-.052.827-.087.19-.024.263-.014.391-.014 1.509 0 2.82.654 3.799 1.89 0 0 .017.024.017.058 0 .052-.076.104-.142.076l-.128-.1c-.85-.66-1.73-1.342-2.833-1.477a3.571 3.571 0 0 0-.623-.052 8.32 8.32 0 0 0-.934.069c-.304.035-.588.07-.882.07a2.56 2.56 0 0 1-1-.18c-1.27-.42-2.307-1.88-2.64-2.786a.151.151 0 0 0-.134-.086c-.035 0-.07.01-.108.035-.148.093-.173.141-.193.231-.021.076.103.727.159 1.007.166.692.415 1.737 1.321 2.124.111.066.225.139.336.211.453.29.92.592 1.456.592.128 0 .256-.017.38-.052.323-.07.651-.107.983-.107 1.045 0 2.107.356 3 1.006.148.087.29.204.425.319.194.162.391.328.627.415.148.059.307.09.477.09.405 0 .508-.121.796-.263a.813.813 0 0 1 .339-.083c.325 0 .505.252.733.574.138.194.294.412.505.602.294.287.702.322 1.024.322.177 0 .353-.014.526-.024.166-.01.367-.018.474-.028.104-.014.163-.028.163-.028v-.041l.007.014Zm-34.375-4.825c-.058.107-.2.169-.387.169a.82.82 0 0 1-.44-.121c-.242-.173-.383-.46-.404-.837-.004-.087-.01-.177.107-.263.059-.035.094-.035.163-.035.231 0 .602.149.799.388.014.017.322.425.163.702v-.003Zm.333-5.325c-.087.111-.218.194-.346.132-.121-.042-.229-.198-.294-.315-.083-.149-.153-.277-.35-.263h-.031c-.173.014-.304.1-.443.207-.069.056-.35.264-.418.322-.377.319-.758.647-.848 1.093a5.534 5.534 0 0 0-.052.24c-.028.155-.055.317-.187.4h-.01a.113.113 0 0 1-.059.014.273.273 0 0 1-.163-.062.196.196 0 0 1-.079-.152c-.066-.768.194-1.46.733-1.951.35-.287.63-.647.903-.997.132-.17.27-.346.412-.508.107-.107.284-.017.574.3.121.132.502.78.675 1.205a.405.405 0 0 1-.02.328l.003.007Zm6.355-8.929c-.145.139-.298.277-.45.419-.54.491-1.097 1-1.463 1.574-.173.235-.301.505-.426.768-.014.028-.045.086-.104.086a.115.115 0 0 1-.08-.038c-.103-.104-.017-.827.118-1.19.298-.802.972-1.643 1.855-2.304a.634.634 0 0 1 .325-.093c.166 0 .294.076.346.207.11.177.07.384-.121.571Zm-36.05 15.205a2.082 2.082 0 0 1-.086-.16c-.09-.169-.138-.349-.183-.505-.09-.314-.166-.588-.509-.54-.484.07-.955.101-1.48.101-.008 0-.17 0-.222.114-.059.132.073.256.215.384.079.073.162.149.217.232.097.142.19.346.28.543.142.315.267.585.409.63a.72.72 0 0 0 .2.027c.33 0 .782-.176 1.111-.432.183-.156.125-.26.042-.398l.006.004Zm-23.659-.491-.027-.021c-.1-.08-.28-.07-.402.014-.083.058-.17.114-.252.17-.27.179-.55.362-.844.611-.108.09-.167.26-.177.391-.01.104.01.187.052.24.024.027.239.265.284.304a.526.526 0 0 0 .342.134.65.65 0 0 0 .29-.076c.523-.262 1.063-1.231 1.084-1.287.055-.155-.121-.297-.35-.48Zm-1.723 2.297c-.107-.152-.463-.571-.664-.571-.017 0-.035 0-.048.01-.277.114-.599.474-.616.689-.07.937-.097 1.037-.353 1.325-.073.08-.121.266-.038.346.072.072.993.363 1.096.363h.021c.083-.028.152-.239.34-.886.1-.35.214-.744.342-1.1.007-.024.01-.059-.073-.176h-.007Z"/><path fill="#D2003C" d="M30.643 28.95c.377-.028.768-.056 1.045-.35.35-.509.65-1.02.914-1.56.235-.485.238-.959.007-1.329-.696-1.114-.82-1.408-1.104-2.165l-.007-.021-.02-.007a2.852 2.852 0 0 1-.243-.087c-.17-.065-.35-.138-.553-.138h-.028c-.239.007-.401.083-.467.215l-.01.02 1.262 2.491c.08.194.173.391.125.682-.049.29-.668 1.266-.855 1.39a.21.21 0 0 1-.11.045c-.014 0-.08-.013-.039-.159.118-.404.267-1.356.225-1.66-.045-.353-1.103-2.104-1.148-2.18l-.021-.03c-.163-.267-.332-.544-.318-.866 0-.149.138-.252.238-.29.184-.07.36-.097.547-.139.45-.1.913-.2 1.08-.453.505-.768.805-1.57 1.006-2.681.01-.049.045-.142.114-.142.042 0 .083.014.1.11a4.016 4.016 0 0 1-.691 3.028.353.353 0 0 0-.045.242c.014.09.114.163.114.163.242.166 1.128.069 1.771-.267.491.01.952-.076 1.401-.159.142-.028.284-.052.422-.076.045.024.08.066.087.097-.377.425-.606.903-.723 1.501a7.16 7.16 0 0 1-.332.315c-.412.377-.855.8-.876 1.339 0 0-.013.194.198.207.065.004.141-.03.21-.058a.519.519 0 0 1 .219-.056.14.14 0 0 1 .12.132l-.47.688c-.176.287-.1.592-.031.89.052.162.028.29.073.435.117.343.536.505.868.505.612-.027 1.17-.228 1.709-.422.097-.034.19-.069.29-.103.592-.256 1.381-.308 2.319-.156.754-.049 1.321-.547 1.871-1.031.235.007.478.145.727.415.816.875 1.816 1.3 3.058 1.3h.142l.124-.01c.128-.03.163-.093.17-.173.01-.096-.066-.193-.204-.259l-.696-.37c-.557-.353-1.162-.779-1.328-1.34-.18-.598-.516-1.206-.768-1.611a4.243 4.243 0 0 0-.163-.242c-.097-.142-.2-.288-.27-.44.758.27 1.183.83 1.696 1.765.38.695 1.37 1.442 2.307 1.442.125 0 .242-.014.36-.038.1-.02.166-.086.18-.173.01-.076 0-.149-.083-.194l-.568-.283c-.674-.395-1.062-1.045-1.439-1.678-.149-.25-.3-.505-.467-.737-.107-.16-.294-.325-.456-.47-.142-.128-.277-.25-.302-.315-.615-1.682-1.286-3.657-1.449-5.854-.024-.335-.26-1.072-.54-1.55-.875-1.425-2.965-3.864-3.079-3.985a6.695 6.695 0 0 0-.221-.222l-.056-.055-3.764-3.127c-.747-.526-.975-.62-1.518-.813a3.536 3.536 0 0 0-1.183-.19c-.533 0-1.066.103-1.502.29-.3.16-.591.346-.875.526-.48.308-.98.626-1.519.806-.422.19-.875.329-1.314.464-.855.262-1.737.536-2.436 1.18-.204.186-.37.342-.509.477-.646.609-.712.674-1.241.674-1.225 0-2.093.301-3 1.038-.716.65-1.425 1.26-2.252 1.547-.37.128-.782.176-1.218.218-.626.055-.723.062-1.314.204-.893.204-1.84.94-2.64 1.563-.263.204-.612.474-.778.582-.087.055-.19.12-.274.17-.996.58-1.934 1.13-3.138 1.13h-.09c-.899-.065-1.715-.685-1.989-1.505-.252-.923.018-1.871.747-2.598.346-.346.74-.681 1.125-1.006.616-.523 1.197-1.018 1.602-1.56.47-.63.418-1.692-.111-2.27-.526-.578-1.702-.865-2.145-.972l-.076-.018c-.045-.01-.121-.02-.163-.03-.28-.056-.55-.094-.823-.16-.699-.19-1.242-.733-1.861-1.065-.239.366-.319.764-.287 1.207.117.934.896 1.903 1.76 2.297.038.014.073.031.111.042.273.117.56.135.83.135h.35c.166 0 .367 0 .546.045a.509.509 0 0 1 .364.422c.014.124-.042.221-.2.342l-.44.363c-.744.613-1.512 1.25-2.135 2.02-.837.904-.875 2.474-.484 3.491.498 1.34 1.875 2.09 3.02 2.235.204.031.408.049.623.049.674 0 1.314-.163 1.937-.319.024-.007.042-.007.059-.007.028 0 .083 0 .093.142.018.277.035.592.049.896.02.495.045.962.08 1.16.082.439.3.975.446 1.328.062.149.11.266.124.325.056.2.004.419-.131.543-.47.433-1.43.775-1.606.8-.283.034-.584.051-.806.062-.11.006-.2.01-.245.017a.437.437 0 0 0-.263.124c-.135.132-.28.509-.453.945-.104.263-.208.536-.315.761-.301.498-.803.792-1.29 1.072-.122.07-.243.142-.36.215l-.014.014c-.2.318-.402.619-.661.847-.2.187-.457.229-.706.26h-.017l-.01.014c-.381.436-.502 1.013-.623 1.577-.017.087-.038.173-.056.256l-.017.08h.049c.2.024.4.066.612.114.28.062.567.125.851.125.27 0 .498-.056.706-.17.363-.166.557-.502.747-.823.125-.211.253-.433.426-.602a.486.486 0 0 1 .387-.166c.142 0 .298.041.446.083.139.038.28.076.415.083.672.038 1.308-.384 1.616-.63.135-.107.27-.235.401-.356.204-.19.412-.388.637-.526.273-.132.602-.194 1.01-.194.505 0 1.041.1 1.467.18a2.8 2.8 0 0 0 .695.09 2.22 2.22 0 0 0 1.097-.27c.374-.21.75-.408 1.052-.567.176-.094.332-.173.453-.242.536-.294.993-1.111 1.162-1.45.16-.315.43-.996.433-1.003l.014-.031-.627-.478-.024.042s-.415.681-.681.996c-1.104 1.502-2.9 1.695-4.342 1.695-.1-.003-.2-.007-.298-.007-1.785 0-3.224.599-4.276 1.782-.048.055-.135.066-.17.017-.02-.027-.027-.072-.013-.128a.857.857 0 0 1 .118-.297c1.117-1.588 3.027-1.823 4.566-1.851 1.138-.076 1.965-.273 2.685-.64.924-.47 1.605-1.508 1.875-2.332.176-.54.263-1.117.346-1.674.066-.443.135-.9.245-1.322a.14.14 0 0 1 .129-.09c.013 0 .024 0 .044.01.06.011.17.052.17.139-.156.872-.367 2.069.031 3.065.187.394.581.588 1.211.588.38 0 .796-.066 1.2-.128.312-.048.606-.097.858-.107.108-.01.215-.014.326-.014.501 0 .986.097 1.453.19.408.083.83.166 1.262.187.076.004.16.01.246.018.149.013.304.024.464.024.366 0 .626-.073.813-.225.131-.107.086-.27.027-.474l-.01-.038c-.01-.035-.02-.073-.035-.114-.083-.27-.21-.678 0-.869a.2.2 0 0 1 .118-.038c.034 0 .083.01.097.066l.069.235c.093.326.19.665.398.955.44.56 1.117 1.093 1.961 1.533.544.373 1.197 1.003 1.25 1.882 0 .398-.388.674-.675.847-.454.225-1.229.478-1.595.478a.318.318 0 0 1-.142-.024c-.526-.28-.796-.734-1.083-1.215a5.652 5.652 0 0 0-.508-.754c-.274-.304-.62-.422-1.087-.384-.45.035-.865.121-1.356.225a.304.304 0 0 0-.221.17.355.355 0 0 0 .027.325c.256.456.502.871.765 1.31l.118.198c.062.107.197.121.307.121.06 0 .125-.003.194-.01.073-.004.149-.01.225-.01.228 0 .374.055.467.169.08.12.149.249.218.373.173.308.35.63.647.858.27.24.66.374 1.069.374.18 0 .353-.028.519-.076 1.18-.37 2.328-.75 3.421-1.335 0 0 .433-.007.599-.021l-.004-.01Zm1.962-13.23c-.02.073-.066.121-.118.121-.02 0-.076-.01-.093-.104-.197-1.006-.315-1.501-.547-1.965-.072-.148-.166-.273-.245-.384-.17-.231-.315-.429-.152-.698.048-.08.169-.132.3-.132.066 0 .125.014.177.038.194.094.384.329.578.72.484.993.1 2.394.096 2.408l.004-.004Zm6.328 10.026s-.032.284-.163.408c-.135.121-.612.187-.865.18-.252-.01-.339-.045-.39-.121-.06-.087.037-.256.037-.256.031-.062.325-.675.92-.837 0 0 .19-.07.374.02.183.09.097.547.09.61l-.004-.004Zm1.722-3.958a1.18 1.18 0 0 1-.124.401c-.031.056-.083.177-.256.18-.19 0-.177-.221-.177-.252 0 0-.024-.62-.142-.879-.128-.284-.75-1.083-1.11-1.048-.09.007-.325.149-.498.373-.211.274-.211.308-.277.35-.066.041-.149.02-.176-.142-.028-.163-.06-.294.017-.602.076-.308.152-.377.242-.598 0 0 .187-.433.256-.54.194-.294.45-.273.45-.273.069.003.29-.025.53.273.276.346.217.315.293.436.076.12.16.249.388.498.228.25.48.733.55 1.034.069.301.066.557.027.79h.007Z"/></g><defs><clipPath id="a"><path fill="#fff" d="M0 0h224.189v36H0z"/></clipPath></defs></svg>